<svg width="167" height="58" viewBox="0 0 167 58" fill="none" xmlns="http://www.w3.org/2000/svg">
<path d="M19.7919 43.9562C16.0656 41.7928 13.4278 38.477 12.0611 34.7218L11.0029 34.7188L18.0405 46.9725L32.1718 47.0044L31.6442 46.0876C27.7066 46.7627 23.5166 46.1181 19.7919 43.9546" fill="#B43A25"/>
<path d="M50.7043 10.3305L39.3232 10.3047L46.3608 22.5584L56.673 22.5827C55.7031 18.1237 53.678 13.9048 50.7043 10.3305Z" fill="#216BB2"/>
<path d="M25.7459 11.231C29.6668 10.5727 33.8309 11.2249 37.5359 13.3762C41.2409 15.5259 43.8741 18.8204 45.2454 22.5497L46.3583 22.5528L39.3208 10.2976L25.1895 10.2656L25.7444 11.231H25.7459Z" fill="#195689"/>
<path d="M25.7467 11.2317L25.1918 10.2663L11.0605 10.2344L15.1228 17.3099C17.8806 14.0139 21.6799 11.9158 25.7452 11.2317" fill="#3D52A3"/>
<path d="M12.1102 22.4729L3.96289 22.4531L11.0004 34.7099L12.0586 34.7129C10.6492 30.8392 10.5991 26.5002 12.1087 22.4744" fill="#660D3B"/>
<path d="M3.96633 22.4607L0.679417 22.4531C-0.226689 26.5306 -0.214526 30.7054 0.64445 34.6916L11.0054 34.716L3.96785 22.4607H3.96633Z" fill="#6D1D42"/>
<path d="M18.043 46.9688L23.7533 56.9085C28.3294 57.7052 32.9892 57.3616 37.3342 55.9842L32.1743 47.0007L18.043 46.9688Z" fill="#E65025"/>
<path d="M50.7031 10.3332C48.6111 7.8171 46.0479 5.62024 43.0514 3.88101C40.0563 2.14329 36.8774 1.00762 33.6543 0.4375L39.322 10.3074L50.7031 10.3332Z" fill="#2986D3"/>
<path d="M6.5791 46.9453C8.68169 49.4873 11.2586 51.7069 14.278 53.4583C17.2973 55.2112 20.5021 56.35 23.7525 56.9125L18.0423 46.9727L6.5791 46.9453Z" fill="#E86636"/>
<path d="M11.0025 34.7196L0.641602 34.6953C1.60092 39.1513 3.61381 43.3702 6.5769 46.9475L18.0401 46.9749L11.0025 34.7196Z" fill="#B6442B"/>
<path d="M39.3245 10.304L33.6568 0.434112C29.0776 -0.374694 24.4088 -0.0402248 20.0576 1.32806L25.1932 10.2705L39.3245 10.304Z" fill="#216BB2"/>
<path d="M25.1907 10.2706L20.055 1.32812C16.1646 2.55198 12.5295 4.60288 9.43262 7.40633L11.0594 10.2387L25.1907 10.2706Z" fill="#4859A7"/>
<path d="M1.79614 18.6797C1.33397 19.9218 0.961489 21.1821 0.678711 22.4516L3.96715 22.4592L1.79614 18.6797Z" fill="#3D52A3"/>
<path d="M9.43262 7.40777C8.4733 8.27739 7.56415 9.21846 6.71582 10.2295L11.0594 10.2386L9.43262 7.40625V7.40777Z" fill="#4859A7"/>
<path d="M12.1123 22.4835C12.4544 21.5698 12.874 20.6713 13.3787 19.8002C13.8956 18.9093 14.4825 18.0837 15.1225 17.319L11.0587 10.245L6.7152 10.2344C5.67074 11.4795 4.71751 12.8311 3.87373 14.286C3.04364 15.7151 2.35342 17.1898 1.79395 18.6888L3.96495 22.4668L12.1123 22.4866V22.4835Z" fill="#4257A6"/>
<path d="M58.8698 49.5789C56.6106 51.7986 54.2343 52.6697 51.3412 52.6697C45.675 52.6697 40.959 49.2627 40.959 42.3271C40.959 35.3914 45.675 31.9844 51.3412 31.9844C54.1142 31.9844 56.2548 32.7765 58.3939 34.8775L55.3427 38.0869C54.1933 37.0561 52.7672 36.5423 51.4203 36.5423C48.1713 36.5423 45.7936 38.92 45.7936 42.3271C45.7936 46.0518 48.3295 48.0328 51.3412 48.0328C52.8874 48.0328 54.432 47.5965 55.6209 46.4076L58.8698 49.5774V49.5789Z" fill="white"/>
<path d="M66.2781 27.0263C66.2781 30.7906 60.5723 30.7906 60.5723 27.0263C60.5723 23.2621 66.2781 23.2621 66.2781 27.0263ZM61.0087 32.4539V52.0674H65.8433V32.4539H61.0087Z" fill="white"/>
<path d="M74.6806 32.5295L75.0378 34.7887C76.5429 32.3714 78.565 32.0156 80.5459 32.0156C82.5269 32.0156 84.5079 32.8077 85.5782 33.878L83.3996 38.0786C82.4083 37.247 81.4976 36.8107 79.912 36.8107C77.3761 36.8107 75.0378 38.1577 75.0378 41.7639V52.067H70.2032V32.5325H74.6806V32.5295Z" fill="white"/>
<path d="M102.89 32.5309H107.525V52.0654H102.969L102.731 49.2118C101.622 51.5105 98.5703 52.6188 96.3917 52.6598C90.6069 52.6993 86.3272 49.1327 86.3272 42.2776C86.3272 35.4225 90.8046 32.0155 96.5103 32.055C99.1252 32.055 101.622 33.2834 102.731 35.2249L102.89 32.5309ZM91.1618 42.2791C91.1618 46.0039 93.7372 48.2235 96.9466 48.2235C104.554 48.2235 104.554 36.3758 96.9466 36.3758C93.7372 36.3758 91.1618 38.5544 91.1618 42.2791Z" fill="white"/>
<path d="M128.804 49.5789C126.545 51.7986 124.169 52.6697 121.276 52.6697C115.61 52.6697 110.894 49.2627 110.894 42.3271C110.894 35.3914 115.61 31.9844 121.276 31.9844C124.049 31.9844 126.189 32.7765 128.328 34.8775L125.277 38.0869C124.128 37.0561 122.702 36.5423 121.355 36.5423C118.106 36.5423 115.728 38.92 115.728 42.3271C115.728 46.0518 118.264 48.0328 121.276 48.0328C122.822 48.0328 124.367 47.5965 125.555 46.4076L128.804 49.5774V49.5789Z" fill="white"/>
<path d="M135.856 44.0225C136.172 46.4398 138.273 48.1836 141.68 48.1836C143.464 48.1836 145.802 47.5101 146.91 46.3607L150.001 49.412C147.941 51.551 144.572 52.5818 141.601 52.5818C134.865 52.5818 130.863 48.4207 130.863 42.1601C130.863 35.8994 134.904 31.9375 141.245 31.9375C147.587 31.9375 151.865 35.9785 151.112 44.0225H135.858H135.856ZM146.475 40.0195C146.159 37.4836 144.177 36.2157 141.404 36.2157C138.789 36.2157 136.648 37.4836 135.935 40.0195H146.475Z" fill="white"/>
<path d="M160.818 27.0312V32.5789H166.207V36.74H160.778V45.1807C160.778 47.0431 161.809 47.9538 163.314 47.9538C164.067 47.9538 164.939 47.7166 165.652 47.3593L166.999 51.4809C165.613 52.0358 164.463 52.273 162.998 52.3125C158.758 52.4706 155.985 50.0533 155.985 45.1807V36.74H152.339V32.5789H155.985V27.5466L160.819 27.0312H160.818Z" fill="white"/>
</svg>
